<svg version="1.2" xmlns="http://www.w3.org/2000/svg" viewBox="0 0 800 800" width="100" height="100">
	<title>velociraptor-chill-out-001-svg</title>
	<style>
		.s0 { fill: #020000 } 
		.s1 { fill: #050202 } 
	</style>
	<g id="Layer">
		<path id="Layer" fill-rule="evenodd" class="s0" d="m747 270.9c-1.1 1.7-3.3 2.2-5 2h-0.4l-48.8-18.9q-4.2-1.5-7.8-3.3c-8.8-4.2-40.8-17.5-83.2-13.4-43.1 4.2-76.3 70.4-76.6 71.1-1.2 2.3-29.9 55.3-35.6 63.6-23.2 33.4-68 50.4-86.2 56.1-4.7 1.5-9.7 2.7-14.9 3.7-8 1.5-34 7.1-36.4 19.1-2.5 12.4-1.5 25.2 0.9 29.9 4.3 8.5 15.2 10.9 20.5 12.1 0.7 0.1 1.3 0.3 1.8 0.4 8.4 2.1 17.6 11.1 22.4 21.8 3.4 7.7 14 24.8 19.6 29.9 9.4 8.5 17 27.1 19.1 32.6 0.2 0.5 0.5 1.3 0.8 2.2 2 5.9 6.9 19.7 14.7 30.9 1 1.3 1.7 2.5 2.3 3.8 1.8 3.9 5.2 11.3 7.2 17.4 1.6 4.8 11.9 8.3 16.8 10 3 1.1 4.1 1.5 4.9 2.2 0.1 0.1 0.3 0.2 0.6 0.4 2.7 1.8 9.6 6.5 9.5 19.6 0 1.3-0.7 2.5-1.9 3.1-1.2 0.6-2.6 0.5-3.7-0.2-1.3-0.9-2.6-1.7-3.6-2.4-1.3 2.9-4.1 5.7-9.8 5.8-7.9 0.2-22.3-7.8-28.8-16.5-3 7.5-7.9 16.5-14.1 17.1-1.4 0.1-2.7 0.2-4 0.2-2.7 0-4.9-0.3-6.6-0.5-3.6-0.6-6.6-3-7.9-6.4-0.8-2-1.2-4-1.3-6-0.1 0-0.1 0-0.2 0-3.9 0-6.6-1.6-7.5-4.5l-0.1-0.2-2.3-11c-1.5 1.5-3.3 2.4-5.3 2.6-1.6 0.1-3.2-0.4-4.4-1.6-1.1-1.2-1.8-2.8-1.6-4.5 0.4-4.1 1.9-11.7 7.8-16.5 3.7-3 8.5-4.3 14.3-4.1 0.5-6.3 1.1-16.1 0.6-20.3-1.2-10.5-10.6-28.7-22.5-33.6-6.7-2.7-12.9-3.7-19.5-4.7-6-0.9-12.3-1.9-19-4.3-7.8-2.8-18-9.6-25.1-14.9-6.6-4.8-12.5-10.4-17.7-16.7l-12.3-14.8q-2-2.4-4.2-4.5c-9.5-9-15-12.4-16.9-12.7-4.2-0.6-13.8 1.2-18.5 2-1.8 0.3-2.7 0.4-3.2 0.5-1.5 0.1-3.5 1-4 1.9-0.1 0.2-0.3 0.6 0.3 1.8 0.1 0.2 0.8 0.9 1.3 1.4 3.5 3.5 10.7 10.9 12.3 26.7 1.7 17.2 3.6 19.8 7.3 24.9l0.5 0.6c1.1 1.6 2.9 3.4 4.7 5.3 4.7 4.8 9.5 9.8 8.1 15.2 0 0.4-0.1 0.7-0.2 1.1-0.8 3.4-1.9 8.6-11.6 17.2-10.6 9.3-18.9 20.7-19.1 25.9q0 1.6 0.3 3.9c0.8 6.9 2 18.6-14.1 23.8l-4.6 1.5 1.1-4.7c0 0 0.1-0.5 0.3-1.3-2.7 4.1-5.5 8.1-7.6 10.5-12.7 14.5-45.4 10.8-58.8 8.5h-0.2c-1.6-0.2-9.1-3.9-14.7-12.3-0.2-0.3-0.6-0.5-1-0.5-2.1 0-5.5 0.4-9.9 2.7l-5.4 2.9 1.5-6c0-0.2 0.6-2.6 2.4-5.7-2.5 0.7-5.2 1.6-7 2.7l-3.7 2.2-0.4-4.3c0-0.3-0.6-7 4.4-12.1 4.1-4.2 10.5-6 19-5.5 0.7 0 6.6 0.4 9.9 2.2 2.8-1.9 5.3-3.1 7.4-3.5 0.7-0.1 1.7-0.2 3.2-0.3 6.7-0.5 24.5-1.9 29.5-10.6 1-1.8 9.7-8.5 25.8-19.9 1.4-2.2 8.3-12.6 9.7-14.9l0.3-0.5c0.8-1.3 2-3.3 1.7-4.6-0.2-0.7-0.8-1.3-1.8-1.9-3.7-2.2-15-10.1-23.9-16.3q-8-5.5-14.1-12.9l-14.4-17.3c-2.1-0.2-7.8-0.6-16.5 0.1-7.8 0.7-15.6-2.8-20.2-9.1-2.5-3.5-5-7.4-7.4-11.8-3.1 1.1-9.2 2.7-18.2 2.9-1.8 0.1-3.3 0.1-4.7 0.1-6.7 0-13.1-3.3-17.1-8.8-4.1-5.6-9.2-13.8-10.3-20.6-1.6-9.6 1.2-26.7 14.3-43 0.5-0.7 0.4-1.7-0.2-2.3-4.7-4.6-13.8-16.1-21.3-41.7-1.1-2.4-10.3-21.1-14.1-33-0.6-2.1-1.5-4.6-2.6-7.6-5.4-15.2-14.5-40.7-15-66.2-0.1-7.2-0.5-13.5-0.8-19.6-1.1-19.1-1.9-34.1 5.2-52.6 3.8-10 14.9-28.2 45.7-58.5 0.7-0.7 1.1-1.1 1.3-1.3 8.1-8.7 20.7-15 30.6-9.1 6.1 3.6 23.4 3.7 34.9 3.7 7.9 0 12.1 0 14.2 0.7 5 1.6 10.8 1.4 16.4 1.3 8.3-0.2 16.8-0.4 22.2 5.4 7.2 7.9 9.5 15.6 10 17.5 0.7 1.4 2.5 5.8 0.9 12.4-0.9 3.5-4.1 6.5-7.8 8.9 4.6 0.4 5.5 1.1 6.1 1.5 1 0.7 2.3 2.2 1.2 7.3-1.8 8.4-9.7 23.7-28.3 27.4-11.8 2.4-19.7 7-24.3 10.5-6.5 4.9-14.2 7.8-22.4 8.5-3.2 0.3-6.5 0.4-7.9 0.4-13.6-0.2-16.8-0.3-25.7 17.7-1.5 2.9-0.1 15.4 2.8 24.7 2.1 6.7 5.7 12.7 10.5 17.2 5.4 5.2 11.3 7.9 17.5 8.2 6.1 0.3 13.5 0.2 21.3 0.2 14.7-0.1 29.8-0.2 36.9 2h0.1c0.9 0.3 1.7 0.6 2.6 0.8 11.2 2.9 33.6 12.5 39.9 17.1 8.1 5.9 31.3 13.6 46.6 18.7 9.9 3.3 15.6 5.2 17.7 6.4 12.4 7 37.6 1.6 45.1-0.3 5.4-1.3 72.2-19.1 72.9-19.3l0.2-0.1c0.2-0.1 22-4.2 34.8-19.7 9.5-11.6 36.1-46 41.3-53.1 29.9-40.9 69.9-48.6 73.1-49.2 2.8-0.8 37.5-9.6 72.5 5 33.7 14 81.1 39.2 84 43.8 1.5 2.5 1.1 4.2 0.6 5.1zm-557.6 214.5c6.1-6.4 8-12.5 5.1-16.3-5-6.6-29.6-10.8-34.5-11.6l-7.5-1.2 5 5.7c6.1 6.9 6.7 9.9 6.5 11.1-0.6 3.8 4.5 16.1 9.6 19.5 0.9 0.6 1.8 0.8 2.8 0.8 5.3 0 12.1-7 13-8zm-61.3-35.1l3.4-5.9c-1.9-1.1-3.7-1.8-4.6-1.5-1.4 1.5-2.3 8.2-2.1 12.1 1.3-1.4 2.5-3.3 3.3-4.7zm1 21.7c3.9-2 7.8-3.5 10.4-4.3-3-8.2-2.7-13.6-2.5-16.9 0-0.8 0.1-1.8 0-2.2-0.7-1-2.6-2.5-4.6-3.7l0.8 6.5c0.9 7.4-1.5 14.9-4.1 20.6z"/>
		<path id="Layer" fill-rule="evenodd" class="s1" d="m189.4 485.5c-0.9 0.9-7.6 7.9-13 7.9-1 0-1.9-0.2-2.8-0.8-5.1-3.4-10.2-15.7-9.6-19.5 0.2-1.2-0.4-4.2-6.5-11.1l-5-5.7 7.5 1.2c4.8 0.8 29.5 5 34.5 11.6 2.8 3.8 0.9 9.9-5.1 16.4zm0.7-13c-2.2-2.9-13.7-6.2-24-8.3 2.6 3.9 3.7 7.1 3.2 9.8-0.1 2 3.7 11.6 7.1 14 2 0.1 9.1-5 12.6-10.9 1.5-2.6 1.6-4.1 1.1-4.6z"/>
	</g>
</svg>